<?xml version="1.0" encoding="utf-8"?>
<!-- Generator: Adobe Illustrator 24.1.2, SVG Export Plug-In . SVG Version: 6.00 Build 0)  -->
<svg version="1.1" id="Capa_1" xmlns="http://www.w3.org/2000/svg" xmlns:xlink="http://www.w3.org/1999/xlink" x="0px" y="0px"
	 viewBox="0 0 792 200" style="enable-background:new 0 0 792 200;" xml:space="preserve">
<style type="text/css">
	.st0{fill:#FFFFFF;}
</style>
<g>
	<g>
		<g>
			<path class="st0" d="M472.7,119.7v-3.4c0-28.2-19.2-31.3-27.4-31.3h-1.4c-5.3,0-10.3,1.2-14.9,3.7l-0.3,0.2
				c-0.3,0.2-0.6,0.4-0.9,0.5l3.7-4.7l-19.3-20.5l-6.2,5c-1.4,1.1-7.4,6.3-18,15.3l5.9-16.1h-10.3l-19.3-1.3h-6.7l-0.5,1.5l0-0.2
				v-2.2l-9.5,0.9c-5.5,0.5-9.7,1-12.4,1.3c-0.1,0-0.2,0-0.4,0l-1.3-2.6l-6.4,1.2c-3.2,0.1-15.4,0.6-37.1,1.6l-1.4-2.7l-6.4,1.2
				c-3.4,0.1-16.5,0.7-40.2,1.7l-2.8,0.1h-5.6v2.4c-5.4-3.4-11.4-4.2-16.1-4.2h-0.8c-8,0-15,3.6-21,10.6l-0.2,0.2l-0.2,0.2
				c-8.3,11.5-12.6,26.6-12.6,45.1c0,9,1.2,18,3.6,26.7c7.6,24.8,21,30,30.8,30c3.8,0,7.8-0.8,12.1-2.3l0.5-0.2l0.4-0.2
				c1.6-0.8,3.1-1.7,4.5-2.7l0.1,3.7v0.2h8.6c0.7,0,1.4-0.1,2.1-0.2c7.6-0.2,13.4-0.4,17.3-0.6c2.1-0.1,3.7-0.2,4.8-0.2
				c0.4,0,0.9-0.1,1.5-0.1c4.5-0.1,8-0.2,10.6-0.3l0,1.3v0.2h8.6c0.7,0,1.4-0.1,2.1-0.2c7.6-0.2,13.4-0.4,17.3-0.6
				c2.1-0.1,3.7-0.2,4.8-0.2c0.4,0,0.9-0.1,1.5-0.1c5.1-0.1,8.9-0.2,11.5-0.4c1-0.1,2.3-0.1,3.7-0.4l0.3,0.6l5.6-0.3
				c14-0.6,14.8-0.8,15.8-1.1l5.1-1.3l2,6.7l6.9-0.5c5.9-0.4,10.4-0.8,13.3-1c4.9-0.4,12.2-1.1,12.2-9.2v-1.5l-0.5-1.4
				c-2.8-7.9-8.5-22.2-17.1-42.4l7.3-19.8c1.2,1.4,2.9,3.1,5.1,5.4l2.5,2.6h6.4l2.2-1.5c13.7-9.4,21-14.5,25-17.3
				c-4.4,5-6.7,11.2-6.7,18.2c0,8.8,3.2,16.6,9.5,23.3l-0.3,0c-4,0.4-8.6,3.4-8.6,10.6c0,7.4,0.9,13.1,2.7,17.3
				c2.3,6,8.8,16.1,26.8,16.1c6.6,0,12.3-1.6,17.2-4.9l0.3-0.2c7.5-5.7,11.3-13.3,11.3-22.4c0-8.7-3.5-16.9-10.4-24.2
				C466.9,128.1,472.7,126.5,472.7,119.7z M222.9,120.4c-1.7,0-2.9,0-3.9,0c0-0.2,0-0.4,0-0.5c0-0.3,0-0.5,0.1-0.8l0.8,0.4
				c0.9,0.4,1.4,0.6,4.4,1C224,120.4,222.9,120.4,222.9,120.4z M269.4,113.3v-12.6c6-0.2,9.5-0.4,11.7-0.4
				c-0.1,4.5-0.2,8.8-0.3,12.8l-3.9,0.1C273.7,113.2,271.2,113.3,269.4,113.3z M280.2,144.2c0,0.3,0,0.5,0,0.8h-3.1
				C278.1,144.9,279.2,144.6,280.2,144.2z M314.3,113.3v-12.6c6-0.2,9.6-0.4,11.7-0.4V113l-4.1,0.1
				C318.6,113.2,316.1,113.3,314.3,113.3z M322,145c1.3-0.2,2.7-0.6,4-1.2v1.2H322z"/>
			<path class="st0" d="M745.3,100.1c5,0,8.9-3.9,8.9-8.9V74l-3.9-7.9l-6.4,1.2c-3.4,0.1-16.5,0.7-40.2,1.7l-2.8,0.1h-5.6v1.2
				c-4.3-2.3-9.4-3.6-15.1-3.6l-0.4,0c-3.4,0-7.2,0.6-11.4,1.9l-0.6,0.2l-0.5,0.2c-2.2,1-4.8,2.5-7.4,4.7c-1.1-3.8-4.5-6.5-8.6-6.5
				h-17.7l-2.9,2.2l-0.8-1.1l-4.6,0.2c-0.9,0-4.5,0.2-19.2,0.4l-2.8,0l-6,4.5v1.8c-5.1-5.2-11.3-7.9-18.7-7.9
				c-8.3,0-15.4,3.5-21.2,10.5l-0.1,0.1l-0.2,0.3c-0.2,0.3-0.4,0.6-0.6,0.9c0-0.5,0-0.9,0-1.3v-2l-3.5-6.9l-5.4,0.1
				c-7.5,0.1-12.6,0.1-15.2,0.1c-1.4,0-2.9,0.4-4.3,1.1l-0.9,0.5l-1.9-3.9l-5.9,0.6c-3.2,0.3-4.5,0.5-5.3,0.6
				c-4.6,0.3-8.2,0.6-10.7,0.8c-3.7,0.4-11.5,1.1-11.5,9.1v0.5l0,0.4c1.1,10.8,1.3,12.9,1.3,13.3c0,2.1,0.7,4.1,1.9,5.7
				c-0.9,43.2-1.4,66.6-1.5,69.5l-0.2,8.9h0.4v0.1h8.6c2.4,0,8.1,0.2,16.9,0.5l4.5,0.2l0.9-1.2l1.5,2.9h5.3c3.2,0,8.5,0,15.8-0.1
				l2,0l6.8-3.4l0-5.3c0-0.8,0-1.7,0-2.5c5.6,8,13,12.1,22,12.1c8.6,0,16.1-4,22-11.6l0.3-0.4c1.5-2.3,2.9-4.7,4.1-7.2
				c6.7,15.5,18.4,18.1,25.6,18.1c10.6,0,18.6-4.7,23.9-14.1c3.2,6.4,10.5,14.7,26.1,14.7h0l1,0c4.8-0.1,9.1-0.9,13-2.6
				c0.7-0.3,1.4-0.6,2.1-1l0.1,3.4v0.2h8.6c0.7,0,1.4-0.1,2.1-0.2c7.6-0.2,13.4-0.4,17.3-0.6c2.1-0.1,3.7-0.2,4.8-0.2
				c0.4,0,0.9-0.1,1.5-0.1c5.1-0.1,8.9-0.2,11.5-0.4c3.6-0.2,12-0.7,12-9.1V154c0-4.1-2.8-7.7-6.8-8.7l-1-0.3h-7.7
				c3.9-0.7,8.8-2.5,8.8-8.9V120l-3.5-7l-5.5,0.1c-3.2,0.1-5.7,0.1-7.5,0.1v-12.6C741.2,100.2,744.5,100.1,745.3,100.1z
				 M661.9,128.6c0-0.5,0-1.1,0-1.6c0.6,0.6,1.1,1.2,1.8,1.9C663,128.7,662.4,128.6,661.9,128.6z M697.5,111.8c0,1.2,0,2.3-0.1,3.5
				c-0.9-0.9-1.9-2-2.9-3.1C695.6,112.1,696.6,112,697.5,111.8z"/>
		</g>
		<g>
			<path d="M368.3,125.6l19.4-52.7h-4.2l-19.3-1.3h-3.5c0,0-5.8,17.7-7.6,23.1c-0.1-8.5-0.1-14.8-0.2-18.7l-0.1-4.3h-0.1v-0.6
				l-4.7,0.5c-5.4,0.5-9.6,1-12.3,1.3c-1.2,0.1-2.3,0.3-3.3,0.5l-1.2-2.5l-3.6,0.6c-1.8,0-9.1,0.3-40.2,1.7l-1.2-2.3l-3.6,0.6
				c-1.8,0-9.2,0.3-40.4,1.7l-2.8,0.1H238v4.3c0,0.9,0,2.2,0,3.8c-5.4-7.8-13.3-10-20.4-10h-0.8c-6.7,0-12.6,3.1-17.7,9.1l-0.1,0.1
				l-0.1,0.1c-7.8,10.7-11.7,25-11.7,42.6c0,8.6,1.1,17.2,3.4,25.5c5.5,17.9,14.5,26.9,26.7,26.9c3.3,0,6.9-0.7,10.6-2l0.2-0.1
				l0.2-0.1c4.6-2.3,8.2-5.8,10.9-10.5c0,2.6-0.1,4.2-0.1,4.9c-0.1,1.1-0.1,1.8-0.1,1.9v4.3h0.1v0.2h4.3c0.4,0,0.9-0.1,1.4-0.2
				c7.9-0.3,13.8-0.5,17.8-0.6c2.1-0.1,3.7-0.2,4.7-0.2c0.3,0,0.8,0,1.4-0.1l0,0c5.1-0.1,9-0.2,11.6-0.4c1.2-0.1,2.4-0.1,3.5-0.3
				v1.7h0.1v0.2h4.3c0.4,0,0.9-0.1,1.4-0.2c7.9-0.3,13.8-0.5,17.8-0.6c2.1-0.1,3.7-0.2,4.7-0.2c0.3,0,0.8,0,1.4-0.1l0,0
				c5.1-0.1,9-0.2,11.6-0.4c2.2-0.1,4.6-0.3,6.2-1.3l0.7,1.3l2.8-0.1c13.5-0.6,14.3-0.8,15-1l3.2-0.8l0.3-16.4
				c0.2-0.5,0.4-1,0.6-1.4c1.4,4.6,3.4,11.1,6.2,20.3l1,3.3l3.4-0.2c5.9-0.4,10.3-0.8,13.2-1c4.8-0.4,8.3-0.7,8.3-4.9V170l-0.2-0.7
				C383.2,161.3,377.3,146.6,368.3,125.6z M218.4,152.4c-0.6-1.1-1.1-2.4-1.6-4.2c0.2,0.1,0.5,0.1,0.7,0.1c0.7,0.1,1.6,0.3,2.6,0.5
				C219.5,150.6,218.9,151.7,218.4,152.4z M239.8,124.8c-7-0.1-12.4-0.1-16.3-0.1h-0.6c-2.8,0-4.9,0-6.2-0.1l-2.1-0.1
				c0-1.4,0.1-3.1,0.1-4.9c0.8-12.8,2-19.2,2.9-22.4c0.5,1.8,1.1,4.7,1.5,9.4v7.8l2.5,1.2c0.9,0.4,1.4,0.6,17.6,2l0.8,0.1
				c-0.1,2.5-0.1,5-0.1,7.3C239.9,124.8,239.9,124.8,239.8,124.8z M265.1,149.3v-7.5c3.9-0.3,6.9-0.6,9-0.8c3.7-0.4,7.5-0.8,7.5-4.9
				V121l-1.8-3.6l-2.7,0.1c-3.8,0.1-6.6,0.1-8.4,0.1h-3.5V96.5c11-0.5,17.2-0.7,18.6-0.7c0.4,0,0.7,0,1-0.1c0.2,0.2,0.5,0.3,0.7,0.5
				c-0.5,23.6-0.8,41.3-1,53.2l-0.1,0H265.1z M329.2,149.3H310v-7.5c3.9-0.3,6.9-0.6,9-0.8c3.7-0.4,7.5-0.8,7.5-4.9V121l-1.8-3.6
				l-2.7,0.1c-3.8,0.1-6.6,0.1-8.4,0.1H310V96.5c11-0.5,17.2-0.7,18.6-0.7c0.5,0,0.9-0.1,1.4-0.2l0.3,0.7l0,0v53.4
				c-0.2-0.1-0.4-0.1-0.6-0.2L329.2,149.3z"/>
			<path d="M423.5,88l2.3-2.9l-14-14.8l-3.1,2.5c-1.7,1.4-10.5,8.9-26.3,22.4l-1.5,1.3v2c0,1.9,0,1.9,7.5,9.7l1.3,1.3h3.2l1.1-0.8
				C422.8,88.8,422.9,88.7,423.5,88z"/>
			<path d="M455.6,127.5l-0.3-0.2l-0.3-0.2c-0.8-0.5-1.7-1-2.4-1.5c3.6-0.3,6.5-0.6,8.5-0.9c3.4-0.4,7.2-0.9,7.2-5v-3.4
				c0-23.4-14.5-26.9-23.1-26.9h-1.4c-4.6,0-8.8,1.1-12.7,3.1l-0.2,0.1c-7.7,4.7-11.8,11.8-11.8,20.5c0,9.2,4.1,17.3,12.2,24
				l0.2,0.2l0.2,0.1c1.3,0.8,2.4,1.6,3.5,2.4l-10.9,0.9c-1.2,0.1-4.7,0.9-4.7,6.3c0,6.9,0.8,12,2.3,15.7c2.3,6.1,8.1,13.4,22.8,13.4
				c5.7,0,10.7-1.4,14.7-4.1l0.2-0.1c6.4-4.9,9.6-11.2,9.6-19C469.3,143.7,464.7,135.1,455.6,127.5z M445.9,155.1l0,0.2
				c-0.3,1.5-0.7,2-0.8,2c0,0,0,0,0,0c-2-1.1-3.2-5.1-3.2-11.1c0-0.1,0-0.2,0-0.4c2.7,3,4,6,4,8.8
				C445.9,154.8,445.9,155.1,445.9,155.1z M446,116.2c0,1.3,0,2.4-0.1,3.3c-1.7-2.2-2.5-4.4-2.5-6.7c0-1.1,0.1-1.6,0.2-1.7
				c0.4-1.6,0.9-2.5,1.2-2.9c0.7,1,1.3,3.2,1.3,6.9V116.2z"/>
			<path d="M745.3,95.8c2.6,0,4.6-2,4.6-4.6V75l-2-4.1l-3.6,0.6c-1.8,0-9.2,0.3-40.4,1.7l-2.8,0.1h-1.4v4.3c0,0.5,0,1,0,1.7
				c-4.4-5.5-11-8.4-19.4-8.4l-0.5,0c-3,0-6.4,0.6-10.2,1.7l-0.3,0.1l-0.3,0.1c-4.7,2.1-9.9,6-12.7,13.1c-0.3-6.7-0.4-9.2-0.4-9.8
				c0-2.7-2-4.8-4.6-4.8H635l-3.2,2.4l0.1,2.3c0.7,16.8,1.1,30.7,1.2,41.3c0,19.9-1.7,27.5-2.9,30.3c-0.9-2.5-2.2-8.5-2.2-23
				c0-6.8,0.7-22.6,2.2-47.1l0.1-1.6l-2.5-3.4l-2.3,0.1c-1.1,0.1-5.3,0.2-19.4,0.4l-1.4,0l-3.1,2.3v2.2c0,0.9,0.1,3.5,0.9,14.4
				c0,0.1,0,0.1,0,0.2c-5.1-13.7-13.1-20.7-23.9-20.7c-7,0-13,3-17.8,8.8l-0.1,0.1l-0.1,0.1c-3.7,5.2-6.6,11.3-8.5,18.3
				c0-9.5,0-16.5,0-21.3v-1l-1.8-3.6l-2.7,0c-7.6,0.1-12.6,0.1-15.2,0.1c-0.8,0-1.5,0.2-2.3,0.6l-2.3,1.2l0,2.6
				c-0.3,20.1-0.5,33.6-0.6,40.4l-2.9,0.4l0.4-43.4l-1.9-3.9l-3,0.3c-3.2,0.3-4.5,0.5-5.2,0.6c-4.7,0.3-8.4,0.6-10.8,0.9
				c-3.9,0.4-7.6,0.7-7.6,4.8v0.2l0,0.2c1.1,10.9,1.3,13.2,1.4,13.6c0,1.5,0.6,3.1,2,4.2c-0.9,44.3-1.4,68.3-1.5,71.3l-0.1,4.4h0.3
				v0.1h4.3c2.5,0,8.2,0.2,17.1,0.5l2.3,0.1l2.4-3.2v-26.9h2.9v28.3l1.8,3.6h2.7c3.2,0,8.4,0,15.8-0.1l1,0l3.5-1.8l0-2.6
				c0-8.3,0.1-16,0.1-23.2c5,18.9,13.8,28.5,26.2,28.5c7.3,0,13.5-3.3,18.5-9.8l0.1-0.1l0.1-0.1c3.6-5.4,6.3-11.7,8.1-18.8
				c0,0.1,0,0.1,0,0.2c4.1,22.8,15.9,27.6,25.1,27.6c12.5,0,20.8-8.1,24.7-24.1c0.2,3.6,0.9,7,2,10.1c2.6,6.7,8.7,14.6,23.3,14.6
				l0.9,0c4.2,0,8-0.8,11.3-2.2c2.8-1.2,5.8-3.2,8.3-6.2c0,0.9,0,1.6,0,1.9c-0.1,1.1-0.1,1.8-0.1,1.9v4.3h0.1v0.2h4.3
				c0.4,0,0.9-0.1,1.5-0.2c7.9-0.3,13.8-0.5,17.8-0.6c2.1-0.1,3.7-0.2,4.7-0.2c0.3,0,0.8,0,1.4-0.1v0c5.1-0.1,9-0.2,11.6-0.4
				c3.7-0.2,7.9-0.4,7.9-4.8V154c0-2.2-1.4-4-3.5-4.5l-0.5-0.1h-19.2v-7.5c3.9-0.3,6.9-0.6,9-0.8c3.7-0.4,7.5-0.8,7.5-4.9V121
				l-1.8-3.6l-2.7,0.1c-3.8,0.1-6.6,0.1-8.4,0.1h-3.5V96.5C737.6,96.1,743.9,95.8,745.3,95.8z M579.4,145.8c-0.3,1.2-0.6,2.2-0.9,3
				c-1.3-3.4-2.6-10-2.6-23v-0.3c0-3.7,0.1-6.9,0.2-9.5c0.7-8.8,1.6-13.8,2.3-16.7c1.8,6.2,2.7,15,2.7,26.4
				C581.1,133.5,580.6,140.3,579.4,145.8z M604.1,95.7c0,0.4,0,0.9,0,1.3c-0.2-0.7-0.4-1.4-0.7-2.1
				C603.6,95.2,603.9,95.5,604.1,95.7z M675.4,135.2c-8.3-1.5-13.3-2.3-15.3-2.5l-2.8-0.3c0.2-3,0.3-6.1,0.3-9.3V114l0-0.2
				c0-0.1,0-0.3,0-0.4c0.3,0.6,0.5,1.2,0.8,1.8c1.7,3.5,5.6,8.2,12.3,14.8l0.1,0.1l0.1,0.1c2.1,1.8,3.9,3.5,5.4,5.2L675.4,135.2z
				 M682,149.9c-0.2,1.7-0.6,2.3-0.7,2.4c0,0-0.2,0.1-0.4,0.1l-0.9,0c-1.3,0-1.4-4-1.4-4.9c0-1.8,0.1-4.4,0.4-7.6l0.1-1.1
				c2.1,3,3.1,5.7,3.1,8.2C682.2,147.3,682.1,148.3,682,149.9z M678.9,98.3v-0.7c0-1.5,0.2-3,0.7-4.5c0,0,0,0,0-0.1
				c0.1,0,0.4-0.1,0.8-0.1c0.2,0,0.3,0,0.3,0c0,0,1.2,1,1.2,6l0.1,6.5l1,1.9C680.3,104.1,679,101.1,678.9,98.3z M691,114.8l-0.2-0.2
				l-0.2-0.2c-2.3-1.8-4.3-3.5-5.9-5.2l2.4-0.3c10.1-1.4,13.5-1.9,14.9-2.2c-0.2,7.6-0.3,14.5-0.4,20.7
				C700.4,125.3,697.8,121.7,691,114.8z"/>
		</g>
		<g>
			<path class="st0" d="M223.5,129h-0.6c-2.9,0-5.1,0-6.5-0.1c0,0.1,0,0.1-0.1,0.1c-0.1,5.6-0.1,10-0.1,13.1v1.3
				c0,0.3,2.9,0.9,8.8,1.8c0,1.9-0.1,3.1-0.3,3.6c-1.9,5.7-4.1,8.6-6.5,8.6h-0.1c-0.5,0-1.1-0.2-1.8-0.6c-3.9-4.8-5.9-15.1-5.9-30.8
				c0-1.8,0-4,0.1-6.7c1.2-19.2,3.5-28.9,7-28.9c3.1,0,5.1,5.3,6,15.9v5.2c0.5,0.2,5.9,0.8,16.2,1.6l0.3-0.1
				c0.1-2.9,0.1-4.6,0.1-5.1c0-21.4-7.5-32-22.4-32h-0.8c-5.3,0-10.2,2.5-14.4,7.6c-7.3,10-10.9,23.3-10.9,40.1
				c0,8.3,1.1,16.4,3.2,24.2c4.9,15.9,12.4,23.9,22.6,23.9c2.8,0,5.9-0.6,9.1-1.8c9.2-4.5,13.8-15.2,13.8-32.2
				c-0.1-5.7-0.3-8.5-0.5-8.5C232.8,129,227.4,129,223.5,129z"/>
			<path class="st0" d="M283.1,75.9c-1.4,0-15,0.6-40.6,1.7c0,0.1,0,0.1-0.1,0.1c0,2.3,0,7.2,0.1,14.5c0,0.3,0.8,0.5,2.4,0.7
				c-1,48.3-1.4,73.4-1.4,75.2c-0.1,1-0.1,1.6-0.1,1.7c0.1,0,0.1,0.1,0.1,0.2c0.1,0,0.3-0.1,0.5-0.2c16.5-0.5,24.8-0.9,24.8-1
				c10.2-0.2,15.3-0.5,15.3-0.9V154c0-0.2-0.1-0.3-0.3-0.3h-23V138c1.2-0.1,1.8-0.2,1.8-0.3c9.8-0.7,14.7-1.3,14.7-1.6V122l-0.1-0.3
				c-3.8,0.1-6.7,0.1-8.5,0.1h-7.8V92.4c13.6-0.6,21.3-0.9,23-0.9c0.2,0,0.3-0.1,0.3-0.3V76l-0.1-0.3L283.1,75.9z"/>
			<path class="st0" d="M328,75.9c-1.4,0-15,0.6-40.6,1.7c0,0.1,0,0.1-0.1,0.1c0,2.3,0,7.2,0.1,14.5c0,0.3,0.8,0.5,2.4,0.7
				c-1,48.3-1.4,73.4-1.4,75.2c-0.1,1-0.1,1.6-0.1,1.7c0.1,0,0.1,0.1,0.1,0.2c0.1,0,0.3-0.1,0.5-0.2c16.5-0.5,24.8-0.9,24.8-1
				c10.2-0.2,15.3-0.5,15.3-0.9V154c0-0.2-0.1-0.3-0.3-0.3h-23V138c1.2-0.1,1.8-0.2,1.8-0.3c9.8-0.7,14.7-1.3,14.7-1.6V122l-0.1-0.3
				c-3.8,0.1-6.7,0.1-8.5,0.1h-7.8V92.4c13.6-0.6,21.3-0.9,23-0.9c0.2,0,0.3-0.1,0.3-0.3V76l-0.1-0.3L328,75.9z"/>
			<path class="st0" d="M381.5,77.2c-0.1,0-0.1,0-0.1-0.1L364,75.9h-0.2c-9.3,28.4-14.2,43.4-14.7,45.2H349V121
				c-0.2-22.8-0.3-37.7-0.4-44.9c-0.1,0-0.2-0.1-0.2-0.2c-10.8,1.1-16.2,1.7-16.2,1.9c0.6,9.4,1,14.3,1.2,14.8
				c0.8,0.2,1.2,0.4,1.2,0.6v75l0.1,0.3c8.7-0.4,13.4-0.7,14.1-0.9l0.3-13.9c3.8-8.3,5.7-12.4,5.9-12.4c0,0.1,3.1,10.5,9.4,31
				c11.7-0.8,17.6-1.4,17.6-1.6c-2.9-8.2-8.9-23.1-18.3-45L381.5,77.2z"/>
			<path class="st0" d="M385.3,98.3c0,0.1,2.1,2.4,6.3,6.7h0.1c18.8-13,28.3-19.6,28.5-19.8l-8.7-9.2
				C409.8,77.4,401.1,84.8,385.3,98.3z"/>
			<path class="st0" d="M452.9,130.8c-9.2-5.5-13.7-11.5-13.7-18c0-1.2,0.1-2.1,0.3-2.9c1.2-4.3,3.1-6.4,5.7-6.4
				c0.2,0,0.7,0.2,1.4,0.5c2.5,1.6,3.8,5.3,3.8,11.2v1.1c0,2.1-0.1,3.9-0.3,5.1c0.1,0,0.1,0,0.1,0.1c9.2-0.8,13.8-1.4,13.8-1.8v-3.4
				c0-15.1-6.3-22.6-18.8-22.6h-1.4c-3.9,0-7.4,0.9-10.7,2.6c-6.5,3.9-9.7,9.5-9.7,16.8c0,7.9,3.6,14.8,10.7,20.7
				c10.8,6.9,16.2,13.8,16.2,20.6v0.1c0,0.7,0,1.3-0.1,1.6c-0.7,3.6-2.4,5.4-5,5.4h-0.6c-0.4,0-0.8-0.1-1.1-0.3
				c-3.9-1.8-5.9-6.8-5.9-15.1c0-0.4,0-1.1,0.1-1.9c-0.1,0-0.1-0.1-0.1-0.2l-12.8,1.1c-0.5,0-0.7,0.6-0.7,1.9v0.1
				c0,6.3,0.7,11,2,14.1c2.6,7.1,8.9,10.7,18.8,10.7c4.9,0,8.9-1.1,12.2-3.4c5.3-4,7.9-9.2,7.9-15.5v-0.1
				C465,145,460.9,137.6,452.9,130.8z"/>
			<path class="st0" d="M532.6,77.6c-0.1,0-0.2,0-0.4,0.1c-0.4,25.3-0.6,39.9-0.6,44.1l-11.5,1.6l0.4-47.4l-0.1-0.3
				c-3.1,0.3-4.7,0.5-5,0.6c-9.8,0.7-14.7,1.2-14.7,1.4c0.9,8.8,1.4,13.4,1.4,14c0,0.8,0.7,1.3,2,1.3c-1,46.5-1.5,71.3-1.6,74.4
				c0.1,0,0.1,0,0.1,0.1c2.5,0,8.3,0.2,17.2,0.5l0.2-0.3V138h11.5v31.6l0.1,0.3c3.2,0,8.4,0,15.7-0.1l0.3-0.1
				c0.2-48.1,0.3-78.7,0.3-91.9l-0.1-0.3C540.2,77.5,535.2,77.6,532.6,77.6z"/>
			<path class="st0" d="M578.7,75.9c-5.7,0-10.5,2.4-14.5,7.2c-7.1,9.9-10.6,23.2-10.6,40c0,5.6,0.5,11.3,1.4,17.1
				c4.2,20.3,12,30.4,23.3,30.4c5.9,0,10.9-2.7,15.1-8.2c6.7-10,10-23,10-39.1c0-6.3-0.5-12.2-1.6-17.8
				C597.7,85.8,590,75.9,578.7,75.9z M583.6,146.8c-1.5,5.7-3.1,8.5-4.9,8.5h-0.3l-1-0.3c-3.9-3.6-5.8-13.4-5.8-29.3v-0.3
				c0-3.8,0.1-7.1,0.3-9.9c1.3-15.8,3.4-23.7,6.4-23.7h0.6c0.7,0,1.4,0.6,2.3,1.9c2.9,6.7,4.3,17.3,4.3,31.8
				C585.4,133.9,584.8,141,583.6,146.8z"/>
			<path class="st0" d="M651.3,75.8h-14.8l-0.3,0.2c0.7,16.9,1.1,30.7,1.3,41.4c0,23.9-2.4,35.9-7.2,35.9c-4.3,0-6.4-9.5-6.4-28.6
				c0-6.9,0.7-22.7,2.2-47.4l-0.2-0.3c-1.6,0.1-8.1,0.2-19.5,0.4l-0.3,0.2c0,1.4,0.3,6.1,0.9,14.2c0,0.7,0.5,1,1.6,1h0.1
				c-0.5,17.5-0.7,27.7-0.7,30.5v0.7c0,8.4,0.5,15.5,1.6,21.4c2.8,16,9.8,24.1,20.8,24.1c15.4,0,23.1-15.5,23.1-46.4V114
				c-1.1-23.5-1.7-36.1-1.7-37.7C651.6,75.9,651.5,75.8,651.3,75.8z"/>
			<path class="st0" d="M687.9,117.9c-8.8-6.8-13.2-13.3-13.3-19.6v-0.7c0-2,0.3-3.9,0.9-5.7c0.6-2.1,2.2-3.2,4.9-3.3
				c3.9,0,5.8,3.4,5.9,10.3l0.1,5.5l0.1,0.3c9.4-1.3,14.4-2,15.2-2.2c0-6-0.9-11.2-2.6-15.7c-3.3-7.7-9.8-11.5-19.3-11.4
				c-2.6,0-5.6,0.5-9,1.5c-8.2,3.6-12.2,10.7-12,21v2c0,4.3,1.3,8.7,3.6,13.3c1.4,2.9,5.3,7.5,11.5,13.7
				c8.4,7.2,12.6,13.9,12.7,20.1c0,0.3-0.1,1.4-0.3,3.4c-0.4,4.2-2.2,6.3-5.4,6.3H680c-3.8,0-5.7-3-5.8-9.1c0-2,0.1-4.7,0.5-8.2
				c-8.1-1.4-13.1-2.3-14.9-2.4c-0.5,2.7-0.7,5.6-0.7,8.6l0.1,1.6c0,4.1,0.7,7.8,1.8,11.1c3.1,8,9.6,12,19.7,11.8h0.4
				c3.6,0,6.8-0.7,9.6-1.8c7.9-3.5,11.8-10.7,11.6-21.6c-0.1-6.1-1.5-11.6-4.3-16.3C697.2,128,693.8,123.8,687.9,117.9z"/>
			<path class="st0" d="M745.3,91.5c0.2,0,0.3-0.1,0.3-0.3V76l-0.1-0.3l-0.7,0.1c-1.4,0-15,0.6-40.6,1.7c0,0.1,0,0.1-0.1,0.1
				c0,2.3,0,7.2,0.1,14.5c0,0.3,0.8,0.5,2.4,0.7c-1,48.3-1.4,73.4-1.4,75.2c-0.1,1-0.1,1.6-0.1,1.7c0.1,0,0.1,0.1,0.1,0.2
				c0.1,0,0.3-0.1,0.5-0.2c16.5-0.5,24.8-0.9,24.8-1c10.2-0.2,15.3-0.5,15.3-0.9V154c0-0.2-0.1-0.3-0.3-0.3h-23V138
				c1.2-0.1,1.8-0.2,1.8-0.3c9.8-0.7,14.7-1.3,14.7-1.6V122l-0.1-0.3c-3.8,0.1-6.7,0.1-8.6,0.1h-7.8V92.4
				C736,91.8,743.7,91.5,745.3,91.5z"/>
		</g>
		<g>
			<path class="st0" d="M784.7,172.7c-0.3,0.7-0.9,1.1-1.6,1.3c-0.8,0.2-1.4,0-2-0.4h0.6c0.5,0,0.9,0,1.1,0c0.7-0.1,1.2-0.4,1.6-1.1
				c0.4-0.7,0.5-1.3,0.4-2c-0.2-1.2-0.6-2.2-1.1-3c-1.6-2.3-3.1-3.9-4.7-5c-0.3-0.4-0.7-0.5-1.3-0.5c-0.2,0-0.1,0.1,0.2,0.4
				c0.8,0.2,1.9,0.9,3.4,2.3c0.2,0.2,0.5,0.5,0.7,0.9c0.2,0.4,0.5,0.7,0.7,1.1c0.2,0.4,0.4,0.7,0.6,0.8c0.7,1.6,1.1,2.9,1.1,3.9
				c0,0.5-0.2,1.1-0.5,1.5c-0.4,0.5-0.8,0.7-1.3,0.6c0.5-0.1,0.9-0.3,1.2-0.6c0.4-0.4,0.5-0.8,0.4-1.3l-0.1,0.1
				c0,0.7-0.4,1.1-1.1,1.3c-0.7,0.2-1.3,0-1.8-0.4c-1.2-0.8-2-1.4-2.3-1.9c-0.8-1.1-1.5-2-2.1-2.7c0.5,0.3,1.2,0.9,2.2,1.9
				c1,0.9,1.9,1.6,2.7,1.9c0.7,0.3,1,0.1,0.9-0.7c0-0.6-0.2-1.2-0.6-1.6c-1-1.9-2.3-3.4-3.9-4.6c-0.2-0.3-0.5-0.4-0.8-0.2
				c-0.3,0.2-0.5,0.4-0.6,0.5c-0.1,0.2-0.3,0.4-0.5,0.8c-0.2,0.4-0.3,0.6-0.4,0.7c-0.2,0.3-0.4,0.8-0.6,1.3
				c-0.3,0.6-0.5,1.1-0.7,1.5c-0.2,0.4-0.5,0.8-0.8,1.3c-0.4,0.5-0.7,0.8-1.1,1.1c-0.6,0.5-1.4,0.8-2.2,0.8c-0.9,0-1.6-0.3-2.3-0.9
				c-2.8-1.9-5.2-4.5-7.2-7.6c-0.7-1.1-1.3-2.2-1.7-3.4c-0.4-1.2-0.6-2.3-0.4-3.4c0.2-1.1,0.7-1.7,1.6-2c0.2-0.1,0.3-0.1,0.5-0.2
				c0.2,0,0.4,0,0.6,0.1c0.2,0.1,0.4,0.1,0.5,0.2c0.2,0,0.3,0.1,0.5,0.3c0.2,0.2,0.3,0.3,0.4,0.4c0.1,0.1,0.2,0.2,0.5,0.4
				c0.2,0.2,0.4,0.3,0.5,0.3c0.7,0.5,1.9,1.9,3.7,4.3c0.8,1.2,1,1.8,0.6,1.8c0-0.1,0,0.1,0.1,0.5l-0.4-0.2c-0.3-0.2-0.9-0.6-1.9-1.5
				c-0.9-0.8-1.9-1.7-3-2.6c-1.1-0.9-1.6-1.4-1.7-1.5c0,0.7,0,1.1-0.1,1.2c0,0.1,0.3,0.9,1,2.3c1.6,3,3.9,5.6,7,7.8
				c0.2,0.1,0.3,0.2,0.5,0.3c0.2,0.1,0.4,0.2,0.5,0.2c0.1,0,0.3,0,0.4,0c0.2,0,0.3-0.2,0.5-0.4c0.3-0.4,0.9-1.4,1.8-3.1
				c0.9-1.7,1.7-2.8,2.5-3.4c1.2-0.9,2.6-0.9,4-0.2c0.9,0.5,1.9,1.7,3.3,3.4c1.8,2.5,2.6,4.7,2.3,6.5
				C784.8,172.2,784.8,172.4,784.7,172.7z"/>
			<path class="st0" d="M784.3,156.6c-0.6,1.1-1.9,1.6-3.7,1.5c-0.8,0-1.5-0.1-2.3-0.2c-0.7-0.1-1.6-0.4-2.5-0.7
				c-0.9-0.4-1.6-0.6-2-0.7c-0.4-0.1-1.2-0.4-2.4-0.9c-1.2-0.5-1.9-0.8-2-0.9c-0.5-0.2-1.4-0.6-2.5-1.2c-1.1-0.5-2-0.9-2.6-1.2
				c-0.2,0-0.4,0.2-0.4,0.6c0,0.4,0,0.8,0.1,1.2c0.1,0.4,0.1,0.8,0,1.1c0.2,0.5,0.2,0.9,0.2,1.2c0,0.4-0.4,0.4-1,0.2
				c-1.6,0.3-2.7-0.8-3.4-3.3c0.3-0.6,0.4-1.6,0.1-3c-0.2-0.5-0.8-1.1-1.8-1.6c-1.1-0.5-1.6-0.8-1.7-0.9c-2.1-1-3.4-1.7-3.7-2.1
				c-0.5-0.3-1.2-0.8-2.2-1.3c-1-0.6-1.8-1.1-2.5-1.6c-0.7-0.5-1.3-1.1-1.9-1.7c-0.3-0.4-0.3-0.6,0.2-0.8c0.4-0.1,0.5-0.3,0.2-0.5
				c0.4,0.1,0.9,0.2,1.5,0.4c0.6,0.2,1.2,0.4,1.7,0.6c0.5,0.2,1,0.4,1.5,0.6c0.7,0.3,2.1,1,4.2,2c2.1,1.1,3.7,1.8,4.9,2.3
				c-0.2-0.2-0.3-0.6-0.1-1.2c0.2-0.7,0.3-1.1,0.2-1.5c0,0.5,0.1,0.7,0.2,0.8c0.1,0.1,0.1,0,0.1-0.1c0.1-0.1,0.1-0.2,0.1-0.5
				c0.2-0.1,0.4-0.4,0.4-0.9c0-0.5,0-1.1-0.1-1.7c-0.1-0.6-0.1-1.1,0-1.3c-0.1-0.4,0-0.9,0.2-1.6c0.2-0.7,0.2-1.3,0.1-1.8
				c0-0.1,0.1,0,0.4,0.2c0.6,0.5,0.7,0.4,0.4-0.2c-0.4-0.5-0.5-0.8-0.4-1.1l0.5,0.5c0.4,0.3,0.7,0.8,0.9,1.6
				c0.2,0.7,0.4,1.2,0.6,1.5c0.2,0.7,0.3,1.8,0.4,3.2c0.1,1.4,0.2,2.2,0.2,2.5c0.1,0.2,0.1,0.7,0.1,1.5c0,0.8,0,1.2,0.2,1.2
				c-0.2,0.5-0.1,0.9,0.2,1.2c0.3,0.4,0.8,0.7,1.5,0.9c0.7,0.3,1.1,0.4,1.2,0.5c5.5,2.7,9.8,4.4,13,5.1c1.1,0.2,1.2-0.5,0.2-2
				l-0.7-1.1c-0.5-0.9-1.4-1.9-2.6-3.3c-1.2-1.3-2-2.3-2.5-2.8c0.3,0.2,0.7,0.5,1.2,0.9c0.5,0.5,0.9,0.8,1.1,0.9
				c1.9,2.1,3.3,4.1,4.3,6c0.1,0.2,0.2,0.5,0.4,0.9l0.1-0.1c-0.2-0.8-0.9-2.1-2.1-4c-0.5-0.7-1.2-1.6-2.3-2.7
				c-1.1-1.1-1.8-1.9-2.1-2.3c0.4,0.3,1,0.8,1.7,1.6c0.7,0.7,1.3,1.3,1.8,1.6c-1.4-1.9-2.4-3.2-3-3.6c-0.3-0.3-0.8-0.8-1.3-1.3
				c-0.6-0.6-1.1-1.1-1.6-1.5c-0.5-0.4-0.9-0.8-1.4-1.1c-0.2-0.2-0.2-0.4,0-0.4c0.6,0.2,1.2,0.5,1.8,0.9c4.2,3,7.6,6.2,10.1,9.7
				C784.8,153.4,785.1,155.2,784.3,156.6z M758.6,144.8c-0.5-0.2-0.8-0.4-0.8-0.5c0-0.1,0.2,0,0.7,0.2l1.1,0.6
				c-0.1,0.1-0.3,0-0.7-0.2L758.6,144.8z"/>
			<path class="st0" d="M783.9,140.9c-0.3,0.9-0.8,1.6-1.6,2.2c-0.7,0.6-1.6,0.8-2.5,0.8c-2.3-0.1-5.1-1.2-8.7-3.5
				c-2.3-1.6-4.6-3.4-6.7-5.4c0.2,0.1,0.3,0.1,0.2,0c-0.2-0.4-0.6-0.7-1.2-0.8c-0.4-0.6-1.1-1.5-2-2.7c-0.9-1.2-1.6-2.1-2-2.8
				c-1-1.9-1.4-3.4-1.2-4.2c0.2-0.6,0.4-0.6,0.8,0.1c0.2,0.2,0.3,0.2,0.3,0.2c0,0,0-0.2-0.1-0.5c0-0.1,0.1,0,0.2,0.2
				c0.2,0.2,0.3,0.5,0.5,0.8c0.2,0.3,0.4,0.5,0.5,0.6c0.4,0.4,0.6,0.5,0.6,0.4c0.1,0,0.1-0.1,0-0.2c0.2-2.7,0.9-4.5,2.2-5.4
				c1.9-1.2,4.3-1.1,7.2,0.4c3.5,1.6,6.7,4.4,9.7,8.3c2.7,3.7,4,7.1,3.7,10.2C784.1,139.9,784,140.4,783.9,140.9z M780.2,136.4
				c-0.9-3.1-3.1-6.3-6.4-9.5c-2.6-2.4-5-3.9-7.1-4.3c-0.5-0.2-1.1-0.1-1.6,0.2c-0.5,0.3-0.8,0.8-1,1.4c-0.1,0.2-0.1,0.7-0.1,1.3
				c0,0.7-0.1,1-0.2,1.1c-0.2-0.6-0.2-1.4,0-2.3c-0.2-0.1-0.3-0.1-0.4,0.1c-0.1,0.1-0.1,0.3-0.1,0.6c0,0.3,0,0.5,0,0.6
				c-0.1,0.3-0.1,0.3-0.1-0.1c0-0.1,0-0.2,0-0.4c0-0.2,0-0.3,0-0.4c0-1.2,0.7-2.3,2-3.3c-0.4,0.1-1.1,0.6-2.1,1.5
				c-0.5,1.2-0.7,2.7-0.6,4.4c0.1,0.3,0.2,0.6,0.5,0.9c0.2,0.3,0.4,0.3,0.6,0.2c0.1,0.4,0.2,0.7,0.5,1.1c0.2,0.3,0.5,0.6,0.9,1
				c0.4,0.4,0.7,0.6,0.8,0.8c4.8,4.4,8.9,7.2,12.5,8.4c0.7,0.4,1.3,0.4,1.8-0.1c0.5-0.4,0.6-1,0.4-1.8
				C780.4,137.5,780.3,137,780.2,136.4z M763.2,127.5c-0.1-0.5-0.1-0.8,0-0.9l0.1,0.6C763.2,127.3,763.2,127.4,763.2,127.5z"/>
			<path class="st0" d="M784.7,119.6c-0.8,1.2-1.8,1.8-3.2,1.8c-0.9,0-1.8-0.1-2.7-0.2c-0.9-0.2-2-0.4-3.2-0.8
				c-1.2-0.4-2-0.6-2.5-0.6c-0.9-0.3-2-0.7-3.4-1.3c0.2-0.2,0.2-0.2,0-0.2c-0.7,0-1.1-0.1-1.1-0.2c-0.4-0.1-0.7-0.2-1.1-0.4
				c-0.3-0.2-0.7-0.4-1.1-0.6c-0.4-0.2-0.7-0.4-1.1-0.5c-0.1-0.1-0.2-0.2-0.2-0.4c-0.1-0.2-0.1-0.3-0.2-0.3c0,0-0.2,0.1-0.4,0.4
				c-1-0.8-1.8-1.2-2.5-1.4c-1.6-0.9-3.1-1.5-4.4-1.9c-0.2-0.2-0.3-0.6-0.1-1c0.2-0.4,0.5-0.8,1-1.2c0.5-0.4,0.9-0.4,1.2-0.3
				c0.1-0.1,1.2,0,3.5,0.2l0.8,0.7c-0.1-0.1-0.2-0.2-0.4-0.5c-0.1-0.1-0.4-0.5-1-1.2c-0.6-0.7-1.1-1.3-1.6-1.6
				c-0.2-0.3-0.4-0.7-0.6-1.1c-0.2-0.4-0.5-0.8-0.8-1.2c-0.3-0.4-0.5-0.8-0.6-1c-1.1-2.2-1.6-4.1-1.6-5.8c0.2-0.5,0.3-0.4,0.4,0.1
				c0,0.1,0,0.2,0,0.4c0.1,0.7,0.2,0.8,0.2,0.2c0.1-0.2,0.1-0.5,0.1-0.7c0-0.2,0-0.5,0.1-0.8c0-0.3,0.1-0.5,0.1-0.6
				c-0.1,1.8-0.1,2.7-0.1,2.8c-0.1,0.4-0.1,0.8,0,1.2c0.1,0.4,0.2,0.9,0.5,1.5c0.2,0.6,0.4,1,0.5,1.1c0.2,0.2,0.6,0.9,1.5,2.1
				c0.8,1.2,1.5,2,2,2.5c-0.2-0.3-0.5-0.8-1.1-1.5c-0.5-0.7-0.9-1.1-1.1-1.5c-0.9-1.4-1.5-2.6-1.9-3.7l-0.1-1.2c0,0.1,0,0.2,0.1,0.4
				c0.2,0.5,0.3,0.5,0.2,0c-0.1-0.9-0.1-1.5,0-1.6c-0.1-0.4-0.1-0.8,0-1.2c0.1-0.4,0.2-0.8,0.3-1.1c0.1-0.3,0.3-0.7,0.6-1.2
				c0.3-0.5,0.4-0.9,0.5-1.1c0.2-0.2,0.2,0.1,0,0.9c0,0.1,0,0.3-0.1,0.6c-0.2,0.4-0.2,0.7-0.2,0.8c-0.3,1.3,0.2,3.1,1.5,5.4
				c0.5,0.6,1,1.3,1.6,2c0.6,0.7,1.2,1.3,1.6,1.8c0.4,0.4,1.1,1.1,1.9,1.9c0.9,0.8,1.4,1.3,1.8,1.6c0.3,0.2,1,0.8,2.1,1.7
				c1.1,0.9,1.7,1.4,1.9,1.6c1.9,1.5,3.2,2.4,3.9,2.7c0.3,0.4,1.4,1.2,3.2,2.3c1.2,0.5,1.8,0.9,2,1.2c0.4,0.2,0.9,0.2,1.4-0.1
				c0.5-0.3,0.8-0.7,0.8-1.1c0,0.7,0.1,0.9,0.4,0.5c0,0.2,0,0.4-0.1,0.6c-0.1,0.2-0.2,0.3-0.4,0.4c-0.2,0.1-0.3,0.2-0.5,0.3
				c-0.2,0.1-0.3,0.3-0.4,0.4c0.3-0.1,0.6-0.2,0.8-0.3c0.2-0.1,0.4-0.3,0.5-0.4c0.1-0.2,0.2-0.4,0.2-0.6c0-0.3,0.1-0.5,0.1-0.6
				c0-0.2,0-0.4,0-0.8c0-0.4,0-0.6,0-0.6c0.1,0.2,0.2,0.5,0.2,0.9c0.1,0.5,0.2,0.7,0.4,0.4C784.8,118.9,784.8,119.4,784.7,119.6z"/>
			<path class="st0" d="M782.3,99.4c-0.4,1-1.1,1.8-2,2.4c-0.9,0.6-1.9,0.8-3,0.6c-2.6-0.4-5.7-2.3-9.2-5.6c-2.1-2.1-3.4-3.5-4-4.2
				c-0.1-0.4-0.4-1-0.8-1.7c-0.5-0.7-0.8-1.3-0.9-1.6c-0.6-1.4-0.9-2.8-0.9-4.3c-0.1-0.1-0.3-0.3-0.6-0.5c-0.3-0.3-0.5-0.5-0.5-0.6
				c0-0.1,0-0.4,0.2-0.9c0.4-1.2,1.5-1.9,3.4-1.9c2.9,0.2,5.5,1.9,7.9,5.1c1.4,2,2.3,4.1,2.6,6.1c-0.1-0.2-0.2-0.4-0.4-0.6
				c-0.2-0.2-0.2-0.1-0.2,0.2c0,0.1,0,0.2,0,0.2c0,0.2,0,0.1-0.1-0.1c-0.1-0.1-0.1-0.2-0.1-0.2c-0.3-0.9-0.5-0.9-0.5-0.2
				c0,0.1,0,0.3,0,0.5c0,0.3,0,0.5,0.1,0.7c0,0.2,0.1,0.4,0.1,0.6c0,0.2,0,0.4-0.1,0.6c-0.1,0.2-0.2,0.2-0.2,0.2
				c-1.1-2.7-2-4.4-2.7-5.1c-1.9-2.5-4-4.2-6.2-5c-0.2,0-0.4,0.1-0.5,0.2c-0.1,0.2-0.1,0.3,0,0.5c0.1,0.2,0.2,0.4,0.2,0.6
				c0.1,0.2,0.2,0.5,0.3,0.7c0.1,0.2,0.2,0.4,0.3,0.5c1.5,2.8,4.2,5.8,8.2,9.1c0.1,0,0.3,0.1,0.5,0.4c0.3,0.2,0.5,0.4,0.6,0.5
				c0.1,0.1,0.3,0.2,0.6,0.4c0.3,0.2,0.5,0.4,0.6,0.5c0.2,0.1,0.4,0.2,0.6,0.4c0.3,0.1,0.5,0.2,0.7,0.3c0.2,0.1,0.4,0.2,0.6,0.2
				c0.2,0.1,0.5,0.2,0.7,0.2c1.2,0.1,1.6-0.8,1.4-2.7c-0.1-1-0.4-2.1-0.9-3.4c-0.2-1-0.7-2.4-1.5-4c-0.8-1.7-1.2-2.8-1.4-3.3
				c-0.1-0.2-0.3-0.6-0.8-1.2c-0.4-0.6-0.7-1-0.8-1.3l-0.5-1.4l0.2,0.6c0.1,0,0.2,0.1,0.4,0.4c0.2,0.3,0.3,0.4,0.4,0.4
				c0,0,0-0.2-0.1-0.4c0-0.1,0-0.2-0.1-0.4l-0.5-0.9c0.1,0.1,0.2,0.2,0.2,0.4c1,1.5,1.6,2.4,1.8,2.8c-0.1-0.1-0.3-0.3-0.6-0.6
				c-0.3-0.5-0.5-0.8-0.5-0.8c0,0,0.1,0.3,0.2,0.6c0.1,0.2,0.3,0.6,0.6,1.5c0.4,0.8,0.6,1.4,0.9,1.8c0.1,0.4,0.3,1,0.8,1.8
				c0.4,0.8,0.7,1.4,0.9,1.8c0.5,1.4,1,2.7,1.3,4c0.2,0.2,0.4,0.7,0.4,1.3c0,0.7,0.1,1,0.2,1.1c0.1-0.4-0.2-1.7-0.8-3.9
				c-0.5-1.6-1.1-3.3-1.9-4.9c0-0.2-0.2-0.6-0.5-1.3c-0.4-0.7-0.5-1.3-0.5-1.8c-0.2,0.1-0.4,0-0.4-0.1c0-0.2,0-0.3,0.1-0.5
				c0.1-0.2,0-0.4-0.2-0.5c-0.1-0.4-0.5-1.4-1.4-3c-0.2-0.2-0.7-1.3-1.8-3.3c-0.5-0.9-0.8-1.3-0.8-1.3c0,0,0.2,0.1,0.4,0.3
				c1.2,1.2,3,3.7,5.5,7.6c2.7,4.8,4.4,8.5,4.9,11.1C782.6,96.9,782.6,98.3,782.3,99.4z"/>
		</g>
		<g>
			<g>
				<path class="st0" d="M200.7,71.8c-0.5-0.5-0.7-1.2-0.8-1.9c-0.1-0.7,0-1.4,0.1-1.9c0.2-0.5,0.4-1.3,0.8-2.3
					c0.4-1,0.6-1.6,0.8-1.8c4.1-9.8,9.1-19.9,15.1-30.2c0.4-0.5,0.2-0.8-0.6-0.8c-0.3,0-0.9,0-1.6,0.1c-0.6,0.2-1.1,0.2-1.3,0.1
					c-3.5,0.5-5.7,0.9-6.4,1.4H206c0.1,0.1,0,0.1-0.1,0.1c-0.2,0-0.4,0-0.8,0c-2.6,1.4-4.2,2.8-4.8,4.3c-0.8,2.2-1.1,4-1.1,5.5
					c-1.9,0.1-3.5-0.7-4.8-2.3c0.2-0.6,0.2-1.7,0.2-3.2c0-1.5,0.1-2.6,0.4-3.1c0.1-0.6,0.3-1.2,0.6-1.8c0.4-0.5,0.7-1,1-1.2
					c0.3-0.3,0.8-0.6,1.5-1.1c0.1-0.3,0.6-0.8,1.6-1.4c1-0.6,1.9-1.1,2.8-1.5c-0.1-0.2,0-0.3,0.2-0.4s0.5-0.2,0.9-0.4
					c0.4-0.1,0.7-0.2,1.2-0.3c0.4-0.1,0.9-0.2,1.3-0.3c0.4-0.1,0.8-0.2,1-0.3c0.9-0.3,2.3-0.6,4.2-0.8c1.9-0.2,3.2-0.4,4.1-0.5
					c1.2,0,3.2-0.1,6-0.2c0.2-0.2,0.5-0.6,0.9-1.5c0.5-0.8,0.9-1.4,1.3-1.8c0.4-0.4,1-0.6,1.6-0.7c0.2,0.1,0.4,0.3,0.4,0.6
					c0,0.3,0.1,0.5,0.1,0.5c0,0,0.2-0.1,0.5-0.3c-0.2,2.6-0.4,4.1-0.6,4.6c2.3,0.3,4.5,0.2,6.5-0.2c0.4,0,1.2,0,2.4-0.1
					c1.2-0.1,2.2-0.1,3-0.1c0.8,0,1.2,0.1,1.3,0.2c-1.2,0.1-1.8,0.2-1.8,0.5c0,0.2,0.5,0.2,1.4,0.1c0.2-0.1,1-0.3,2.6-0.6
					c1.6-0.3,2.7-0.7,3.4-1.2c0.5-0.2,0.5-0.2,0.2,0.2c-0.5,0.6-0.8,1-0.7,1c0.1,0,0.4-0.1,0.9-0.3c0.1-0.1,0.4-0.4,0.9-0.8
					c1.2-0.9,1.9-1.3,1.9-1.2c0,0.1-0.2,0.4-0.7,0.9c-1.2,0.9-1.8,1.6-1.9,2c-0.1,0.1,0.2-0.1,0.9-0.6c-0.8,1.2-2.9,2.3-6.3,3.4
					c-1.9,0.6-4.6,1-8.1,1.2c-3.5,0.2-5.7,0.3-6.5,0.5c-0.9-0.1-1.6,0.6-2.3,2c-0.7,1.4-1.1,2.1-1.3,2.2c0.1-0.4,0.4-1.1,1-2
					c0.6-0.9,0.8-1.6,0.6-2c-0.9,1.4-2,3.5-3.4,6.4c-1.4,2.8-2.5,4.9-3.2,6.1c-1.9,3.7-3.9,7.2-5.8,10.5c-0.3,0.5-0.8,1.5-1.6,2.7
					c-0.7,1.3-1.3,2.3-1.6,3.1c-0.2,0.4-0.7,1.2-1.4,2.3c-0.7,1.1-1.2,2.1-1.6,2.9c-0.4,0.8-0.4,1.4-0.3,1.7l0.1,0.1
					c-1.5,1.5-2.3,2-2.5,1.6c0-0.2,0.1-0.5,0.4-0.9c0.1-0.3,0.3-0.9,0.6-1.6c0.4-0.8,0.6-1.5,0.8-2c0.2-0.6,0.3-0.9,0.2-0.9
					c-0.2,0.3-0.6,0.9-1.2,1.8c-0.6,0.9-1,1.8-1.2,2.7c-0.3,0.2-0.4,0.5-0.4,1.1c0.1,0.5,0.3,0.9,0.6,1.2c0.4,0.2,0.8,0.1,1.5-0.5
					c0.3-0.1,0.9-0.4,1.9-1.1c0.6-0.4,1-0.6,1.2-0.6c0.2-0.1,0,0.1-0.5,0.6c-0.1,0.1-0.2,0.2-0.2,0.2c-0.2,0.2-0.4,0.4-0.8,0.8
					c-0.4,0.4-0.7,0.6-0.8,0.8c-0.2,0.1-0.5,0.3-0.9,0.6c-0.5,0.3-0.8,0.4-1.1,0.3C201.7,72,201.3,71.9,200.7,71.8z"/>
				<path class="st0" d="M239.2,68.3c-1.2-0.3-2-1.1-2.5-2.3c-0.5-1.2-0.7-2.5-0.6-3.8c0.1-1.2,0.5-3.9,1.4-8.3
					c0.3-0.8,0.4-1.2,0.1-1.2c-0.1,0-0.3,0.2-0.6,0.6c-0.5,0.4-1.3,1-2.2,1.9c-0.9,0.9-1.6,1.5-2.1,1.9c0.3-0.1,0.3,0,0,0.4
					c-0.8,0.6-1.2,1-1.2,1.2c-1.5,1.6-2.7,3.1-3.7,4.3c-1,1.2-2,2.4-2.9,3.7c-0.5,0.2-1,0.1-1.4-0.5c-0.4-0.5-0.6-1.2-0.5-1.9
					c0-0.7,0.3-1.2,0.6-1.5c0.6-2.6,1.6-5.6,2.8-8.9c2.9-7.6,6.5-15.8,10.8-24.7c0.2-0.5,0.4-1.1,0.6-1.6c0.3-0.5,0.6-1.1,1-1.8
					c0.4-0.7,0.7-1.2,0.8-1.6c0.6-1.6,1.4-2.6,2.2-2.9c0.5-0.2,1,0.1,1.3,0.9c-0.1,1.1-0.3,2.1-0.5,3c-0.3,0.9-0.7,2.2-1.3,3.8
					c-0.6,1.6-1,2.5-1.2,2.7c-0.2,0.8-2.8,6.5-7.8,17.3c-0.2,0.5-0.6,1.2-1.1,2.2c-0.5,1-0.9,1.8-1.2,2.2l-0.4,1.1
					c0.1-0.1,0.2-0.3,0.5-0.7c0.1-0.2,0.4-0.5,0.9-0.9c0.5-0.4,0.9-0.7,1.2-0.9c0.3-0.3,0.4-0.5,0.2-0.6c0.2-0.5,0.7-0.9,1.5-1.4
					c0.8-0.5,1.3-0.9,1.6-1.3c2-1.5,3.5-2.3,4.3-2.6c1.1-0.4,1.9-0.1,2.5,0.8c0.5,0.9,0.7,1.9,0.5,3c-0.3,2.4-0.8,4.4-1.5,6.1
					c-0.1,0.2-0.1,0.4-0.2,0.8c0,0.4-0.1,0.7-0.2,0.8c-0.1,0.2-0.2,0.2-0.5,0.1c0,0.2,0,0.3-0.1,0.4c-0.1,0.3-0.1,0.3-0.1,0
					c0-0.1,0-0.2,0-0.4c0.1-0.4,0.1-0.6,0.1-0.5c0,0-0.1,0.3-0.3,0.6c-0.1,0.2,0,0.6,0.4,1.2c0.2,0.3,0.2,0.5,0.2,0.5
					c0,0-0.3-0.1-0.6-0.5c-0.9,2.2-1.2,4.1-0.8,5.8c0.4,0.5,0.8,0.7,1.2,0.7c0.4,0,0.8-0.1,1.2-0.4c0.4-0.2,0.8-0.5,1.3-0.8
					c0.5-0.3,0.9-0.5,1.2-0.7c0.3-0.1,0.9-0.5,1.8-1.3c0.9-0.8,1.5-1.2,1.9-1.1c-0.2,0.1-0.5,0.2-0.8,0.5c-0.3,0.2-0.5,0.5-0.8,0.8
					c-0.2,0.3-0.4,0.5-0.5,0.5c1.4-1.1,2.2-1.9,2.5-2.5c0.5-0.5,1.2-1.2,1.9-2.2c0.7-1,1.1-1.6,1.3-1.9c-0.1,1.5-0.4,2.3-1.1,2.5
					c-2.7,3.2-4.5,5.3-5.6,6.2l-0.5,0.5l1.6-1.1c0.1-0.2,0.2-0.3,0.2-0.4c0.8-0.9,1.2-1.3,1.3-1.1c0.1,0.1,0.1,0.2,0,0.4
					c0.2-0.2,0.5-0.8,1.1-1.6c0.5-0.8,1.1-1.4,1.6-1.7l-0.2-0.1c-0.2,0.1-0.3,0-0.1-0.1c0-0.1,0.1-0.2,0.2-0.4
					c0.5-0.3,1-0.9,1.3-1.6c0.4-0.8,0.6-1.3,0.9-1.5c0.5-1.9,1-2.9,1.3-2.8c0,0.3-0.2,0.8-0.5,1.5c-0.3,0.7-0.5,1.2-0.7,1.7
					c-0.2,0.5-0.2,0.7,0,0.7c0-0.5,0.2-0.7,0.5-0.8l-0.1,0.4c0,0.1,0,0.2-0.1,0.4c-1,1.7-1.8,2.7-2.2,3c0.2,0.2,0.2,0.4,0,0.8
					c-0.2,0.4-0.6,0.8-1,1.2c-0.4,0.5-0.7,0.9-0.8,1.2c-2.2,2.6-4.3,4.1-6.4,4.6C241,68.6,240.1,68.6,239.2,68.3z M249.3,60.7
					l0.4-0.4c-0.1,0.4-0.3,0.6-0.6,0.7v-0.1L249.3,60.7z"/>
				<path class="st0" d="M251.8,67.6c-1-0.4-1.8-1.1-2.4-2c-0.6-0.9-0.8-1.9-0.6-3c0.4-2.6,2.3-5.7,5.6-9.2c2.1-2.1,3.5-3.4,4.2-4
					c0.4-0.1,1-0.4,1.7-0.8c0.7-0.5,1.3-0.8,1.6-0.9c1.4-0.6,2.8-0.9,4.3-0.9c0.1-0.1,0.3-0.3,0.5-0.6c0.3-0.3,0.5-0.5,0.6-0.5
					c0.1,0,0.4,0,0.9,0.2c1.2,0.4,1.9,1.5,1.9,3.4c-0.2,2.9-1.9,5.5-5.1,7.9c-2,1.4-4.1,2.3-6.1,2.6c0.2-0.1,0.4-0.2,0.6-0.4
					c0.2-0.2,0.1-0.2-0.2-0.2c-0.1,0-0.2,0-0.2,0c-0.2,0-0.1,0,0.1-0.1c0.1-0.1,0.2-0.1,0.2-0.1c0.9-0.3,0.9-0.5,0.2-0.5
					c-0.1,0-0.3,0-0.5,0c-0.3,0-0.5,0-0.7,0.1c-0.2,0-0.4,0.1-0.6,0.1c-0.2,0-0.4,0-0.6-0.1c-0.2-0.1-0.2-0.2-0.2-0.2
					c2.7-1.1,4.4-2,5.1-2.7c2.5-1.9,4.2-4,5-6.2c0-0.2-0.1-0.4-0.2-0.5c-0.2-0.1-0.3-0.1-0.5,0c-0.2,0.1-0.4,0.2-0.6,0.2
					c-0.2,0.1-0.5,0.2-0.7,0.3c-0.2,0.1-0.4,0.2-0.5,0.3c-2.8,1.5-5.8,4.2-9.1,8.2c0,0.1-0.1,0.3-0.4,0.5c-0.2,0.3-0.4,0.5-0.5,0.6
					c-0.1,0.1-0.2,0.3-0.4,0.6c-0.2,0.3-0.4,0.5-0.5,0.6c-0.1,0.2-0.2,0.4-0.4,0.6c-0.1,0.3-0.2,0.5-0.3,0.7
					c-0.1,0.2-0.2,0.4-0.2,0.6c-0.1,0.2-0.2,0.5-0.2,0.7c-0.1,1.2,0.8,1.6,2.7,1.4c1-0.1,2.1-0.4,3.4-0.9c1-0.2,2.4-0.7,4-1.5
					c1.7-0.8,2.8-1.2,3.3-1.4c0.2-0.1,0.6-0.3,1.2-0.8c0.6-0.4,1-0.7,1.3-0.8l1.4-0.5l-0.6,0.2c0,0.1-0.1,0.2-0.4,0.4
					c-0.3,0.2-0.4,0.3-0.4,0.4c0,0,0.2,0,0.4-0.1c0.1,0,0.2,0,0.4-0.1l0.9-0.5c-0.1,0.1-0.2,0.2-0.4,0.2c-1.5,1-2.4,1.6-2.8,1.8
					c0.1-0.1,0.3-0.3,0.6-0.6c0.5-0.3,0.8-0.5,0.8-0.5c0,0-0.3,0.1-0.6,0.2c-0.2,0.1-0.6,0.3-1.5,0.6c-0.8,0.4-1.4,0.6-1.8,0.9
					c-0.4,0.1-1,0.3-1.8,0.8c-0.8,0.4-1.4,0.7-1.8,0.9c-1.4,0.5-2.7,1-4,1.3c-0.2,0.2-0.7,0.4-1.3,0.4c-0.7,0-1,0.1-1.1,0.2
					c0.4,0.1,1.7-0.2,3.9-0.8c1.6-0.5,3.3-1.1,4.9-1.9c0.2,0,0.6-0.2,1.3-0.5c0.7-0.4,1.3-0.5,1.8-0.5c-0.1-0.2,0-0.4,0.1-0.4
					c0.2,0,0.3,0,0.5,0.1c0.2,0.1,0.4,0,0.5-0.2c0.4-0.1,1.4-0.5,3-1.4c0.2-0.2,1.3-0.7,3.3-1.8c0.9-0.5,1.3-0.8,1.3-0.8
					c0,0-0.1,0.2-0.3,0.4c-1.2,1.2-3.7,3-7.6,5.5c-4.8,2.7-8.5,4.4-11.1,4.9C254.3,67.8,252.8,67.8,251.8,67.6z"/>
			</g>
		</g>
	</g>
	<g>
		<path class="st0" d="M27.6,49.8C43.2,28.3,68.5,14.3,97,14.3c28.5,0,53.8,14,69.4,35.5c2-1.5,2.7-2.8,2.9-3.3
			C153,24.4,126.6,10,97,10c-29.6,0-55.9,14.4-72.3,36.5C24.9,47,25.7,48.3,27.6,49.8z"/>
		<path class="st0" d="M97,24.3c0,0,16.7,31.4,43,31.4c11.3,0,18.3-1.7,22.7-3.7C147.9,31.8,124,18.6,97,18.6S46.2,31.8,31.4,52
			c4.3,2,11.3,3.7,22.7,3.7C80.3,55.7,97,24.3,97,24.3z"/>
		<path class="st0" d="M157.6,72.5c-3.8,0-2.7,6.4-2.7,6.4c-1.3-5.4-10.9-5.5-10.9-5.5H97h-47c0,0-9.5,0.2-10.9,5.5
			c0,0,1.2-6.4-2.7-6.4c-2.6,0-9.2-1.5-11.7-9.9C19,73.8,15.7,86.5,15.7,100c0,23.1,9.6,43.9,25,58.7c4.1-10.7,8.4-26.6,8.4-47h7.1
			V91.3c0,0-6.8,0.3-6.8-6.1v-5.9h17.2V94h20.3V77.8H97h10.2V94h20.3V79.3h17.2v5.9c0,6.4-6.8,6.1-6.8,6.1v20.4h7.1
			c0,20.4,4.3,36.3,8.4,47c15.4-14.8,25-35.6,25-58.7c0-13.5-3.3-26.2-9.1-37.4C166.8,70.9,160.2,72.5,157.6,72.5z M44.8,107.6h-9.7
			V93.1h9.9c0,0,2.4,0.6,2.4,6.6S44.8,107.6,44.8,107.6z M158.9,107.6h-9.7c0,0-2.6-1.9-2.6-7.9s2.4-6.6,2.4-6.6h9.9V107.6z"/>
		<path class="st0" d="M128,108.3H97h-31c0,0,2.6,30.5-7.6,63.4c11.5,6.2,24.6,9.7,38.5,9.7c13.9,0,27.1-3.5,38.5-9.7
			C125.4,138.8,128,108.3,128,108.3z"/>
		<path class="st0" d="M169.5,46.7c0.6,3.4,0.8,6.3,0.8,8.9c7.9,13,12.4,28.2,12.4,44.4c0,24.8-10.6,47.2-27.6,62.9
			c-4.6,4.2-9.6,8-15.1,11.2c-12.7,7.4-27.4,11.6-43.1,11.6s-30.4-4.2-43.1-11.6c-5.4-3.2-10.5-6.9-15.1-11.2
			C22,147.2,11.4,124.8,11.4,100c0-16.2,4.5-31.5,12.4-44.4c0-2.6,0.2-5.5,0.8-8.9C13.6,61.6,7,80.1,7,100c0,26.6,11.6,50.5,30,67
			c2.8,2.5,5.8,4.9,8.9,7.1C60.5,184.1,78.1,190,97,190s36.6-5.9,51.1-15.9c3.1-2.2,6.1-4.5,8.9-7.1c18.4-16.5,30-40.4,30-67
			C187,80.1,180.5,61.6,169.5,46.7z"/>
		<path d="M24.6,46.3c0,0.1,0,0.2-0.1,0.4c0-0.1,0.1-0.1,0.1-0.2C24.7,46.4,24.6,46.3,24.6,46.3z"/>
		<path d="M169.4,46.3c0,0,0,0.1-0.1,0.2c0,0.1,0.1,0.1,0.1,0.2C169.5,46.6,169.5,46.4,169.4,46.3z"/>
		<g>
			<path d="M170.3,55.6c0-2.6-0.2-5.5-0.8-8.9c0-0.1-0.1-0.1-0.1-0.2c-0.2,0.5-0.9,1.8-2.9,3.3C150.8,28.3,125.5,14.3,97,14.3
				c-28.5,0-53.8,14-69.4,35.5c-2-1.5-2.7-2.8-2.9-3.3c0,0.1-0.1,0.1-0.1,0.2c-0.6,3.4-0.8,6.3-0.8,8.9c-7.9,13-12.4,28.2-12.4,44.4
				c0,24.8,10.6,47.2,27.6,62.9c4.6,4.2,9.6,8,15.1,11.2c12.7,7.4,27.4,11.6,43.1,11.6s30.4-4.2,43.1-11.6
				c5.4-3.2,10.5-6.9,15.1-11.2c16.9-15.7,27.6-38.1,27.6-62.9C182.7,83.8,178.2,68.5,170.3,55.6z M97,18.6
				c27,0,50.9,13.1,65.7,33.3c-4.3,2-11.3,3.7-22.7,3.7c-26.3,0-43-31.4-43-31.4S80.3,55.7,54,55.7c-11.3,0-18.3-1.7-22.7-3.7
				C46.2,31.8,70.1,18.6,97,18.6z M97,181.4c-13.9,0-27.1-3.5-38.5-9.7c10.2-32.9,7.6-63.4,7.6-63.4h31h31c0,0-2.6,30.5,7.6,63.4
				C124.1,177.9,111,181.4,97,181.4z M153.4,158.7c-4.1-10.7-8.4-26.6-8.4-47h-7.1V91.3c0,0,6.8,0.3,6.8-6.1v-5.9h-17.2V94h-20.3
				V77.8H97H86.9V94H66.6V79.3H49.4v5.9c0,6.4,6.8,6.1,6.8,6.1v20.4h-7.1c0,20.4-4.3,36.3-8.4,47c-15.4-14.8-25-35.6-25-58.7
				c0-13.5,3.3-26.2,9.1-37.4c2.5,8.4,9.1,9.9,11.7,9.9c3.8,0,2.7,6.4,2.7,6.4c1.3-5.4,10.9-5.5,10.9-5.5h47h47
				c0,0,9.5,0.2,10.9,5.5c0,0-1.2-6.4,2.7-6.4c2.6,0,9.2-1.5,11.7-9.9c5.8,11.2,9.1,23.9,9.1,37.4
				C178.4,123.1,168.8,143.9,153.4,158.7z"/>
			<path d="M45.1,93.1h-9.9v14.5h9.7c0,0,2.6-1.9,2.6-7.9S45.1,93.1,45.1,93.1z"/>
			<path d="M146.6,99.7c0,6,2.6,7.9,2.6,7.9h9.7V93.1H149C149,93.1,146.6,93.7,146.6,99.7z"/>
		</g>
	</g>
</g>
</svg>
