<?xml version="1.0" encoding="utf-8"?>
<!-- Generator: Adobe Illustrator 24.1.2, SVG Export Plug-In . SVG Version: 6.00 Build 0)  -->
<svg version="1.1" id="Capa_1" xmlns="http://www.w3.org/2000/svg" xmlns:xlink="http://www.w3.org/1999/xlink" x="0px" y="0px"
	 viewBox="0 0 193 200" style="enable-background:new 0 0 193 200;" xml:space="preserve">
<style type="text/css">
	.st0{fill:#FFFFFF;}
</style>
<g>
	<g>
		<path d="M27.6,49.8C43.2,28.3,68.5,14.3,97,14.3s53.8,14,69.4,35.5c2-1.5,2.7-2.8,2.9-3.3C153,24.4,126.6,10,97,10
			S41.1,24.4,24.7,46.5C24.9,47,25.7,48.3,27.6,49.8z"/>
		<path d="M97,24.3c0,0,16.7,31.4,43,31.4c11.3,0,18.3-1.7,22.7-3.7C147.9,31.8,124,18.6,97,18.6S46.2,31.8,31.4,52
			c4.3,2,11.3,3.7,22.7,3.7C80.3,55.7,97,24.3,97,24.3z"/>
		<path d="M157.6,72.5c-3.8,0-2.7,6.4-2.7,6.4c-1.3-5.4-10.9-5.5-10.9-5.5H97H50c0,0-9.5,0.2-10.9,5.5c0,0,1.2-6.4-2.7-6.4
			c-2.6,0-9.2-1.5-11.7-9.9c-5.7,11.2-9,23.9-9,37.4c0,23.1,9.6,43.9,25,58.7c4.1-10.7,8.4-26.6,8.4-47h7.1V91.3
			c0,0-6.8,0.3-6.8-6.1v-5.9h17.2V94h20.3V77.8H97h10.2V94h20.3V79.3h17.2v5.9c0,6.4-6.8,6.1-6.8,6.1v20.4h7.1
			c0,20.4,4.3,36.3,8.4,47c15.4-14.8,25-35.6,25-58.7c0-13.5-3.3-26.2-9.1-37.4C166.8,70.9,160.2,72.5,157.6,72.5z M44.8,107.6h-9.7
			V93.1H45c0,0,2.4,0.6,2.4,6.6S44.8,107.6,44.8,107.6z M158.9,107.6h-9.7c0,0-2.6-1.9-2.6-7.9s2.4-6.6,2.4-6.6h9.9L158.9,107.6
			L158.9,107.6z"/>
		<path d="M128,108.3H97H66c0,0,2.6,30.5-7.6,63.4c11.5,6.2,24.6,9.7,38.5,9.7s27.1-3.5,38.5-9.7C125.4,138.8,128,108.3,128,108.3z"
			/>
		<path d="M169.5,46.7c0.6,3.4,0.8,6.3,0.8,8.9c7.9,13,12.4,28.2,12.4,44.4c0,24.8-10.6,47.2-27.6,62.9c-4.6,4.2-9.6,8-15.1,11.2
			c-12.7,7.4-27.4,11.6-43.1,11.6s-30.4-4.2-43.1-11.6c-5.4-3.2-10.5-6.9-15.1-11.2C22,147.2,11.4,124.8,11.4,100
			c0-16.2,4.5-31.5,12.4-44.4c0-2.6,0.2-5.5,0.8-8.9C13.6,61.6,7,80.1,7,100c0,26.6,11.6,50.5,30,67c2.8,2.5,5.8,4.9,8.9,7.1
			C60.5,184.1,78.1,190,97,190s36.6-5.9,51.1-15.9c3.1-2.2,6.1-4.5,8.9-7.1c18.4-16.5,30-40.4,30-67C187,80.1,180.5,61.6,169.5,46.7
			z"/>
		<path class="st0" d="M24.6,46.3c0,0.1,0,0.2-0.1,0.4c0-0.1,0.1-0.1,0.1-0.2C24.7,46.4,24.6,46.3,24.6,46.3z"/>
		<path class="st0" d="M169.4,46.3c0,0,0,0.1-0.1,0.2c0,0.1,0.1,0.1,0.1,0.2C169.5,46.6,169.5,46.4,169.4,46.3z"/>
		<g>
			<path class="st0" d="M170.3,55.6c0-2.6-0.2-5.5-0.8-8.9c0-0.1-0.1-0.1-0.1-0.2c-0.2,0.5-0.9,1.8-2.9,3.3
				c-15.7-21.5-41-35.5-69.5-35.5s-53.8,14-69.4,35.5c-2-1.5-2.7-2.8-2.9-3.3c0,0.1-0.1,0.1-0.1,0.2c-0.6,3.4-0.8,6.3-0.8,8.9
				c-7.9,13-12.4,28.2-12.4,44.4c0,24.8,10.6,47.2,27.6,62.9c4.6,4.2,9.6,8,15.1,11.2c12.7,7.4,27.4,11.6,43.1,11.6
				s30.4-4.2,43.1-11.6c5.4-3.2,10.5-6.9,15.1-11.2c16.9-15.7,27.6-38.1,27.6-62.9C182.7,83.8,178.2,68.5,170.3,55.6z M97,18.6
				c27,0,50.9,13.1,65.7,33.3c-4.3,2-11.3,3.7-22.7,3.7c-26.3,0-43-31.4-43-31.4S80.3,55.7,54,55.7c-11.3,0-18.3-1.7-22.7-3.7
				C46.2,31.8,70.1,18.6,97,18.6z M97,181.4c-13.9,0-27.1-3.5-38.5-9.7c10.2-32.9,7.6-63.4,7.6-63.4h31h31c0,0-2.6,30.5,7.6,63.4
				C124.1,177.9,111,181.4,97,181.4z M153.4,158.7c-4.1-10.7-8.4-26.6-8.4-47h-7.1V91.3c0,0,6.8,0.3,6.8-6.1v-5.9h-17.2V94h-20.3
				V77.8H97H86.9V94H66.6V79.3H49.4v5.9c0,6.4,6.8,6.1,6.8,6.1v20.4h-7.1c0,20.4-4.3,36.3-8.4,47c-15.4-14.8-25-35.6-25-58.7
				c0-13.5,3.3-26.2,9.1-37.4c2.5,8.4,9.1,9.9,11.7,9.9c3.8,0,2.7,6.4,2.7,6.4c1.3-5.4,10.9-5.5,10.9-5.5h47h47
				c0,0,9.5,0.2,10.9,5.5c0,0-1.2-6.4,2.7-6.4c2.6,0,9.2-1.5,11.7-9.9c5.8,11.2,9.1,23.9,9.1,37.4
				C178.4,123.1,168.8,143.9,153.4,158.7z"/>
			<path class="st0" d="M45.1,93.1h-9.9v14.5h9.7c0,0,2.6-1.9,2.6-7.9S45.1,93.1,45.1,93.1z"/>
			<path class="st0" d="M146.6,99.7c0,6,2.6,7.9,2.6,7.9h9.7V93.1H149C149,93.1,146.6,93.7,146.6,99.7z"/>
		</g>
	</g>
</g>
</svg>
